<svg width="70" height="70" viewBox="0 0 87 87" fill="none" xmlns="http://www.w3.org/2000/svg">
<path d="M87 43.5C87 67.5245 67.5245 87 43.5 87C19.4755 87 0 67.5245 0 43.5C0 19.4755 19.4755 0 43.5 0C67.5245 0 87 19.4755 87 43.5ZM38.4684 66.5329L70.7426 34.2587C71.8385 33.1628 71.8385 31.3858 70.7426 30.2899L66.7737 26.321C65.6778 25.2249 63.9008 25.2249 62.8047 26.321L36.4839 52.6417L24.1953 40.3531C23.0994 39.2572 21.3224 39.2572 20.2263 40.3531L16.2574 44.3219C15.1615 45.4179 15.1615 47.1949 16.2574 48.2908L34.4994 66.5327C35.5955 67.6288 37.3723 67.6288 38.4684 66.5329Z" fill="white"/>
<path d="M54.249 10.4522L52.5402 13.8135L48.717 14.3543C48.0314 14.4507 47.7566 15.2708 48.2538 15.7404L51.0198 18.3553L50.3656 22.0492C50.2479 22.7169 50.9727 23.217 51.5798 22.9048L55 21.1607L58.4202 22.9048C59.0273 23.2145 59.7521 22.7169 59.6344 22.0492L58.9802 18.3553L61.7462 15.7404C62.2434 15.2708 61.9686 14.4507 61.283 14.3543L57.4598 13.8135L55.751 10.4522C55.4449 9.85307 54.5578 9.84546 54.249 10.4522Z" fill="#3AABFC"/>
</svg>
